<?xml version="1.0" encoding="utf-8" standalone="no"?>
<!DOCTYPE svg PUBLIC "-//W3C//DTD SVG 1.1//EN"
  "http://www.w3.org/Graphics/SVG/1.1/DTD/svg11.dtd">
<svg xmlns:xlink="http://www.w3.org/1999/xlink" width="512.446094pt" height="337.718906pt" viewBox="0 0 512.446094 337.718906" xmlns="http://www.w3.org/2000/svg" version="1.1">
 <metadata>
  <rdf:RDF xmlns:dc="http://purl.org/dc/elements/1.1/" xmlns:cc="http://creativecommons.org/ns#" xmlns:rdf="http://www.w3.org/1999/02/22-rdf-syntax-ns#">
   <cc:Work>
    <dc:type rdf:resource="http://purl.org/dc/dcmitype/StillImage"/>
    <dc:date>2026-07-06T19:49:35.654954</dc:date>
    <dc:format>image/svg+xml</dc:format>
    <dc:creator>
     <cc:Agent>
      <dc:title>Matplotlib v3.11.0, https://matplotlib.org/</dc:title>
     </cc:Agent>
    </dc:creator>
   </cc:Work>
  </rdf:RDF>
 </metadata>
 <defs>
  <style type="text/css">*{stroke-linejoin: round; stroke-linecap: butt}</style>
 </defs>
 <g id="figure_1">
  <g id="patch_1">
   <path d="M 0 337.718906 
L 512.446094 337.718906 
L 512.446094 0 
L 0 0 
z
" style="fill: #121212"/>
  </g>
  <g id="axes_1">
   <g id="patch_2">
    <path d="M 58.846094 299.518125 
L 505.246094 299.518125 
L 505.246094 22.318125 
L 58.846094 22.318125 
z
" style="fill: #121212"/>
   </g>
   <g id="matplotlib.axis_1">
    <g id="xtick_1">
     <g id="line2d_1">
      <path d="M 79.137003 299.518125 
L 79.137003 22.318125 
" clip-path="url(#p8df8d9db7c)" style="fill: none; stroke: #2a2a2a; stroke-linecap: round"/>
     </g>
     <g id="line2d_2">
      <defs>
       <path id="mde27ef8f6e" d="M 0 0 
L 0 3.5 
" style="stroke: #000000; stroke-width: 0.8"/>
      </defs>
      <g>
       <use xlink:href="#mde27ef8f6e" x="79.137003" y="299.518125" style="stroke: #000000; stroke-width: 0.8"/>
      </g>
     </g>
     <g id="text_1">
      <!-- 0 -->
      <g transform="translate(75.955753 314.115781) scale(0.1 -0.1)">
       <defs>
        <path id="DejaVuSans-13" d="M 2034 4250 
Q 1547 4250 1301 3770 
Q 1056 3291 1056 2328 
Q 1056 1369 1301 889 
Q 1547 409 2034 409 
Q 2525 409 2770 889 
Q 3016 1369 3016 2328 
Q 3016 3291 2770 3770 
Q 2525 4250 2034 4250 
z
M 2034 4750 
Q 2819 4750 3233 4129 
Q 3647 3509 3647 2328 
Q 3647 1150 3233 529 
Q 2819 -91 2034 -91 
Q 1250 -91 836 529 
Q 422 1150 422 2328 
Q 422 3509 836 4129 
Q 1250 4750 2034 4750 
z
" transform="scale(0.015625)"/>
       </defs>
       <use xlink:href="#DejaVuSans-13"/>
      </g>
     </g>
    </g>
    <g id="xtick_2">
     <g id="line2d_3">
      <path d="M 160.300639 299.518125 
L 160.300639 22.318125 
" clip-path="url(#p8df8d9db7c)" style="fill: none; stroke: #2a2a2a; stroke-linecap: round"/>
     </g>
     <g id="line2d_4">
      <g>
       <use xlink:href="#mde27ef8f6e" x="160.300639" y="299.518125" style="stroke: #000000; stroke-width: 0.8"/>
      </g>
     </g>
     <g id="text_2">
      <!-- 2 -->
      <g transform="translate(157.119389 314.115781) scale(0.1 -0.1)">
       <defs>
        <path id="DejaVuSans-15" d="M 1228 531 
L 3431 531 
L 3431 0 
L 469 0 
L 469 531 
Q 828 903 1448 1529 
Q 2069 2156 2228 2338 
Q 2531 2678 2651 2914 
Q 2772 3150 2772 3378 
Q 2772 3750 2511 3984 
Q 2250 4219 1831 4219 
Q 1534 4219 1204 4116 
Q 875 4013 500 3803 
L 500 4441 
Q 881 4594 1212 4672 
Q 1544 4750 1819 4750 
Q 2544 4750 2975 4387 
Q 3406 4025 3406 3419 
Q 3406 3131 3298 2873 
Q 3191 2616 2906 2266 
Q 2828 2175 2409 1742 
Q 1991 1309 1228 531 
z
" transform="scale(0.015625)"/>
       </defs>
       <use xlink:href="#DejaVuSans-15"/>
      </g>
     </g>
    </g>
    <g id="xtick_3">
     <g id="line2d_5">
      <path d="M 241.464276 299.518125 
L 241.464276 22.318125 
" clip-path="url(#p8df8d9db7c)" style="fill: none; stroke: #2a2a2a; stroke-linecap: round"/>
     </g>
     <g id="line2d_6">
      <g>
       <use xlink:href="#mde27ef8f6e" x="241.464276" y="299.518125" style="stroke: #000000; stroke-width: 0.8"/>
      </g>
     </g>
     <g id="text_3">
      <!-- 4 -->
      <g transform="translate(238.283026 314.115781) scale(0.1 -0.1)">
       <defs>
        <path id="DejaVuSans-17" d="M 2419 4116 
L 825 1625 
L 2419 1625 
L 2419 4116 
z
M 2253 4666 
L 3047 4666 
L 3047 1625 
L 3713 1625 
L 3713 1100 
L 3047 1100 
L 3047 0 
L 2419 0 
L 2419 1100 
L 313 1100 
L 313 1709 
L 2253 4666 
z
" transform="scale(0.015625)"/>
       </defs>
       <use xlink:href="#DejaVuSans-17"/>
      </g>
     </g>
    </g>
    <g id="xtick_4">
     <g id="line2d_7">
      <path d="M 322.627912 299.518125 
L 322.627912 22.318125 
" clip-path="url(#p8df8d9db7c)" style="fill: none; stroke: #2a2a2a; stroke-linecap: round"/>
     </g>
     <g id="line2d_8">
      <g>
       <use xlink:href="#mde27ef8f6e" x="322.627912" y="299.518125" style="stroke: #000000; stroke-width: 0.8"/>
      </g>
     </g>
     <g id="text_4">
      <!-- 6 -->
      <g transform="translate(319.446662 314.115781) scale(0.1 -0.1)">
       <defs>
        <path id="DejaVuSans-19" d="M 2113 2584 
Q 1688 2584 1439 2293 
Q 1191 2003 1191 1497 
Q 1191 994 1439 701 
Q 1688 409 2113 409 
Q 2538 409 2786 701 
Q 3034 994 3034 1497 
Q 3034 2003 2786 2293 
Q 2538 2584 2113 2584 
z
M 3366 4563 
L 3366 3988 
Q 3128 4100 2886 4159 
Q 2644 4219 2406 4219 
Q 1781 4219 1451 3797 
Q 1122 3375 1075 2522 
Q 1259 2794 1537 2939 
Q 1816 3084 2150 3084 
Q 2853 3084 3261 2657 
Q 3669 2231 3669 1497 
Q 3669 778 3244 343 
Q 2819 -91 2113 -91 
Q 1303 -91 875 529 
Q 447 1150 447 2328 
Q 447 3434 972 4092 
Q 1497 4750 2381 4750 
Q 2619 4750 2861 4703 
Q 3103 4656 3366 4563 
z
" transform="scale(0.015625)"/>
       </defs>
       <use xlink:href="#DejaVuSans-19"/>
      </g>
     </g>
    </g>
    <g id="xtick_5">
     <g id="line2d_9">
      <path d="M 403.791548 299.518125 
L 403.791548 22.318125 
" clip-path="url(#p8df8d9db7c)" style="fill: none; stroke: #2a2a2a; stroke-linecap: round"/>
     </g>
     <g id="line2d_10">
      <g>
       <use xlink:href="#mde27ef8f6e" x="403.791548" y="299.518125" style="stroke: #000000; stroke-width: 0.8"/>
      </g>
     </g>
     <g id="text_5">
      <!-- 8 -->
      <g transform="translate(400.610298 314.115781) scale(0.1 -0.1)">
       <defs>
        <path id="DejaVuSans-1b" d="M 2034 2216 
Q 1584 2216 1326 1975 
Q 1069 1734 1069 1313 
Q 1069 891 1326 650 
Q 1584 409 2034 409 
Q 2484 409 2743 651 
Q 3003 894 3003 1313 
Q 3003 1734 2745 1975 
Q 2488 2216 2034 2216 
z
M 1403 2484 
Q 997 2584 770 2862 
Q 544 3141 544 3541 
Q 544 4100 942 4425 
Q 1341 4750 2034 4750 
Q 2731 4750 3128 4425 
Q 3525 4100 3525 3541 
Q 3525 3141 3298 2862 
Q 3072 2584 2669 2484 
Q 3125 2378 3379 2068 
Q 3634 1759 3634 1313 
Q 3634 634 3220 271 
Q 2806 -91 2034 -91 
Q 1263 -91 848 271 
Q 434 634 434 1313 
Q 434 1759 690 2068 
Q 947 2378 1403 2484 
z
M 1172 3481 
Q 1172 3119 1398 2916 
Q 1625 2713 2034 2713 
Q 2441 2713 2670 2916 
Q 2900 3119 2900 3481 
Q 2900 3844 2670 4047 
Q 2441 4250 2034 4250 
Q 1625 4250 1398 4047 
Q 1172 3844 1172 3481 
z
" transform="scale(0.015625)"/>
       </defs>
       <use xlink:href="#DejaVuSans-1b"/>
      </g>
     </g>
    </g>
    <g id="xtick_6">
     <g id="line2d_11">
      <path d="M 484.955185 299.518125 
L 484.955185 22.318125 
" clip-path="url(#p8df8d9db7c)" style="fill: none; stroke: #2a2a2a; stroke-linecap: round"/>
     </g>
     <g id="line2d_12">
      <g>
       <use xlink:href="#mde27ef8f6e" x="484.955185" y="299.518125" style="stroke: #000000; stroke-width: 0.8"/>
      </g>
     </g>
     <g id="text_6">
      <!-- 10 -->
      <g transform="translate(478.592685 314.115781) scale(0.1 -0.1)">
       <defs>
        <path id="DejaVuSans-14" d="M 794 531 
L 1825 531 
L 1825 4091 
L 703 3866 
L 703 4441 
L 1819 4666 
L 2450 4666 
L 2450 531 
L 3481 531 
L 3481 0 
L 794 0 
L 794 531 
z
" transform="scale(0.015625)"/>
       </defs>
       <use xlink:href="#DejaVuSans-14"/>
       <use xlink:href="#DejaVuSans-13" transform="translate(63.625 0)"/>
      </g>
     </g>
    </g>
    <g id="text_7">
     <!-- x-axis -->
     <g transform="translate(267.265625 328.116563) scale(0.1 -0.1)">
      <defs>
       <path id="DejaVuSans-5b" d="M 3513 3500 
L 2247 1797 
L 3578 0 
L 2900 0 
L 1881 1375 
L 863 0 
L 184 0 
L 1544 1831 
L 300 3500 
L 978 3500 
L 1906 2253 
L 2834 3500 
L 3513 3500 
z
" transform="scale(0.015625)"/>
       <path id="DejaVuSans-10" d="M 313 2009 
L 1997 2009 
L 1997 1497 
L 313 1497 
L 313 2009 
z
" transform="scale(0.015625)"/>
       <path id="DejaVuSans-44" d="M 2194 1759 
Q 1497 1759 1228 1600 
Q 959 1441 959 1056 
Q 959 750 1161 570 
Q 1363 391 1709 391 
Q 2188 391 2477 730 
Q 2766 1069 2766 1631 
L 2766 1759 
L 2194 1759 
z
M 3341 1997 
L 3341 0 
L 2766 0 
L 2766 531 
Q 2569 213 2275 61 
Q 1981 -91 1556 -91 
Q 1019 -91 701 211 
Q 384 513 384 1019 
Q 384 1609 779 1909 
Q 1175 2209 1959 2209 
L 2766 2209 
L 2766 2266 
Q 2766 2663 2505 2880 
Q 2244 3097 1772 3097 
Q 1472 3097 1187 3025 
Q 903 2953 641 2809 
L 641 3341 
Q 956 3463 1253 3523 
Q 1550 3584 1831 3584 
Q 2591 3584 2966 3190 
Q 3341 2797 3341 1997 
z
" transform="scale(0.015625)"/>
       <path id="DejaVuSans-4c" d="M 603 3500 
L 1178 3500 
L 1178 0 
L 603 0 
L 603 3500 
z
M 603 4863 
L 1178 4863 
L 1178 4134 
L 603 4134 
L 603 4863 
z
" transform="scale(0.015625)"/>
       <path id="DejaVuSans-56" d="M 2834 3397 
L 2834 2853 
Q 2591 2978 2328 3040 
Q 2066 3103 1784 3103 
Q 1356 3103 1142 2972 
Q 928 2841 928 2578 
Q 928 2378 1081 2264 
Q 1234 2150 1697 2047 
L 1894 2003 
Q 2506 1872 2764 1633 
Q 3022 1394 3022 966 
Q 3022 478 2636 193 
Q 2250 -91 1575 -91 
Q 1294 -91 989 -36 
Q 684 19 347 128 
L 347 722 
Q 666 556 975 473 
Q 1284 391 1588 391 
Q 1994 391 2212 530 
Q 2431 669 2431 922 
Q 2431 1156 2273 1281 
Q 2116 1406 1581 1522 
L 1381 1569 
Q 847 1681 609 1914 
Q 372 2147 372 2553 
Q 372 3047 722 3315 
Q 1072 3584 1716 3584 
Q 2034 3584 2315 3537 
Q 2597 3491 2834 3397 
z
" transform="scale(0.015625)"/>
      </defs>
      <use xlink:href="#DejaVuSans-5b"/>
      <use xlink:href="#DejaVuSans-10" transform="translate(59.1875 0)"/>
      <use xlink:href="#DejaVuSans-44" transform="translate(95.265625 0)"/>
      <use xlink:href="#DejaVuSans-5b" transform="translate(156.546875 0)"/>
      <use xlink:href="#DejaVuSans-4c" transform="translate(215.734375 0)"/>
      <use xlink:href="#DejaVuSans-56" transform="translate(243.515625 0)"/>
     </g>
    </g>
   </g>
   <g id="matplotlib.axis_2">
    <g id="ytick_1">
     <g id="line2d_13">
      <path d="M 58.846094 286.924782 
L 505.246094 286.924782 
" clip-path="url(#p8df8d9db7c)" style="fill: none; stroke: #2a2a2a; stroke-linecap: round"/>
     </g>
     <g id="line2d_14">
      <defs>
       <path id="m328c0e68a0" d="M 0 0 
L -3.5 0 
" style="stroke: #000000; stroke-width: 0.8"/>
      </defs>
      <g>
       <use xlink:href="#m328c0e68a0" x="58.846094" y="286.924782" style="stroke: #000000; stroke-width: 0.8"/>
      </g>
     </g>
     <g id="text_8">
      <!-- −1.00 -->
      <g transform="translate(21.200781 290.72361) scale(0.1 -0.1)">
       <defs>
        <path id="DejaVuSans-c9c" d="M 678 2272 
L 4684 2272 
L 4684 1741 
L 678 1741 
L 678 2272 
z
" transform="scale(0.015625)"/>
        <path id="DejaVuSans-11" d="M 684 794 
L 1344 794 
L 1344 0 
L 684 0 
L 684 794 
z
" transform="scale(0.015625)"/>
       </defs>
       <use xlink:href="#DejaVuSans-c9c"/>
       <use xlink:href="#DejaVuSans-14" transform="translate(83.796875 0)"/>
       <use xlink:href="#DejaVuSans-11" transform="translate(147.421875 0)"/>
       <use xlink:href="#DejaVuSans-13" transform="translate(179.203125 0)"/>
       <use xlink:href="#DejaVuSans-13" transform="translate(242.828125 0)"/>
      </g>
     </g>
    </g>
    <g id="ytick_2">
     <g id="line2d_15">
      <path d="M 58.846094 255.42395 
L 505.246094 255.42395 
" clip-path="url(#p8df8d9db7c)" style="fill: none; stroke: #2a2a2a; stroke-linecap: round"/>
     </g>
     <g id="line2d_16">
      <g>
       <use xlink:href="#m328c0e68a0" x="58.846094" y="255.42395" style="stroke: #000000; stroke-width: 0.8"/>
      </g>
     </g>
     <g id="text_9">
      <!-- −0.75 -->
      <g transform="translate(21.200781 259.222778) scale(0.1 -0.1)">
       <defs>
        <path id="DejaVuSans-1a" d="M 525 4666 
L 3525 4666 
L 3525 4397 
L 1831 0 
L 1172 0 
L 2766 4134 
L 525 4134 
L 525 4666 
z
" transform="scale(0.015625)"/>
        <path id="DejaVuSans-18" d="M 691 4666 
L 3169 4666 
L 3169 4134 
L 1269 4134 
L 1269 2991 
Q 1406 3038 1543 3061 
Q 1681 3084 1819 3084 
Q 2600 3084 3056 2656 
Q 3513 2228 3513 1497 
Q 3513 744 3044 326 
Q 2575 -91 1722 -91 
Q 1428 -91 1123 -41 
Q 819 9 494 109 
L 494 744 
Q 775 591 1075 516 
Q 1375 441 1709 441 
Q 2250 441 2565 725 
Q 2881 1009 2881 1497 
Q 2881 1984 2565 2268 
Q 2250 2553 1709 2553 
Q 1456 2553 1204 2497 
Q 953 2441 691 2322 
L 691 4666 
z
" transform="scale(0.015625)"/>
       </defs>
       <use xlink:href="#DejaVuSans-c9c"/>
       <use xlink:href="#DejaVuSans-13" transform="translate(83.796875 0)"/>
       <use xlink:href="#DejaVuSans-11" transform="translate(147.421875 0)"/>
       <use xlink:href="#DejaVuSans-1a" transform="translate(179.203125 0)"/>
       <use xlink:href="#DejaVuSans-18" transform="translate(242.828125 0)"/>
      </g>
     </g>
    </g>
    <g id="ytick_3">
     <g id="line2d_17">
      <path d="M 58.846094 223.923118 
L 505.246094 223.923118 
" clip-path="url(#p8df8d9db7c)" style="fill: none; stroke: #2a2a2a; stroke-linecap: round"/>
     </g>
     <g id="line2d_18">
      <g>
       <use xlink:href="#m328c0e68a0" x="58.846094" y="223.923118" style="stroke: #000000; stroke-width: 0.8"/>
      </g>
     </g>
     <g id="text_10">
      <!-- −0.50 -->
      <g transform="translate(21.200781 227.721946) scale(0.1 -0.1)">
       <use xlink:href="#DejaVuSans-c9c"/>
       <use xlink:href="#DejaVuSans-13" transform="translate(83.796875 0)"/>
       <use xlink:href="#DejaVuSans-11" transform="translate(147.421875 0)"/>
       <use xlink:href="#DejaVuSans-18" transform="translate(179.203125 0)"/>
       <use xlink:href="#DejaVuSans-13" transform="translate(242.828125 0)"/>
      </g>
     </g>
    </g>
    <g id="ytick_4">
     <g id="line2d_19">
      <path d="M 58.846094 192.422286 
L 505.246094 192.422286 
" clip-path="url(#p8df8d9db7c)" style="fill: none; stroke: #2a2a2a; stroke-linecap: round"/>
     </g>
     <g id="line2d_20">
      <g>
       <use xlink:href="#m328c0e68a0" x="58.846094" y="192.422286" style="stroke: #000000; stroke-width: 0.8"/>
      </g>
     </g>
     <g id="text_11">
      <!-- −0.25 -->
      <g transform="translate(21.200781 196.221114) scale(0.1 -0.1)">
       <use xlink:href="#DejaVuSans-c9c"/>
       <use xlink:href="#DejaVuSans-13" transform="translate(83.796875 0)"/>
       <use xlink:href="#DejaVuSans-11" transform="translate(147.421875 0)"/>
       <use xlink:href="#DejaVuSans-15" transform="translate(179.203125 0)"/>
       <use xlink:href="#DejaVuSans-18" transform="translate(242.828125 0)"/>
      </g>
     </g>
    </g>
    <g id="ytick_5">
     <g id="line2d_21">
      <path d="M 58.846094 160.921454 
L 505.246094 160.921454 
" clip-path="url(#p8df8d9db7c)" style="fill: none; stroke: #2a2a2a; stroke-linecap: round"/>
     </g>
     <g id="line2d_22">
      <g>
       <use xlink:href="#m328c0e68a0" x="58.846094" y="160.921454" style="stroke: #000000; stroke-width: 0.8"/>
      </g>
     </g>
     <g id="text_12">
      <!-- 0.00 -->
      <g transform="translate(29.580469 164.720282) scale(0.1 -0.1)">
       <use xlink:href="#DejaVuSans-13"/>
       <use xlink:href="#DejaVuSans-11" transform="translate(63.625 0)"/>
       <use xlink:href="#DejaVuSans-13" transform="translate(95.40625 0)"/>
       <use xlink:href="#DejaVuSans-13" transform="translate(159.03125 0)"/>
      </g>
     </g>
    </g>
    <g id="ytick_6">
     <g id="line2d_23">
      <path d="M 58.846094 129.420621 
L 505.246094 129.420621 
" clip-path="url(#p8df8d9db7c)" style="fill: none; stroke: #2a2a2a; stroke-linecap: round"/>
     </g>
     <g id="line2d_24">
      <g>
       <use xlink:href="#m328c0e68a0" x="58.846094" y="129.420621" style="stroke: #000000; stroke-width: 0.8"/>
      </g>
     </g>
     <g id="text_13">
      <!-- 0.25 -->
      <g transform="translate(29.580469 133.21945) scale(0.1 -0.1)">
       <use xlink:href="#DejaVuSans-13"/>
       <use xlink:href="#DejaVuSans-11" transform="translate(63.625 0)"/>
       <use xlink:href="#DejaVuSans-15" transform="translate(95.40625 0)"/>
       <use xlink:href="#DejaVuSans-18" transform="translate(159.03125 0)"/>
      </g>
     </g>
    </g>
    <g id="ytick_7">
     <g id="line2d_25">
      <path d="M 58.846094 97.919789 
L 505.246094 97.919789 
" clip-path="url(#p8df8d9db7c)" style="fill: none; stroke: #2a2a2a; stroke-linecap: round"/>
     </g>
     <g id="line2d_26">
      <g>
       <use xlink:href="#m328c0e68a0" x="58.846094" y="97.919789" style="stroke: #000000; stroke-width: 0.8"/>
      </g>
     </g>
     <g id="text_14">
      <!-- 0.50 -->
      <g transform="translate(29.580469 101.718617) scale(0.1 -0.1)">
       <use xlink:href="#DejaVuSans-13"/>
       <use xlink:href="#DejaVuSans-11" transform="translate(63.625 0)"/>
       <use xlink:href="#DejaVuSans-18" transform="translate(95.40625 0)"/>
       <use xlink:href="#DejaVuSans-13" transform="translate(159.03125 0)"/>
      </g>
     </g>
    </g>
    <g id="ytick_8">
     <g id="line2d_27">
      <path d="M 58.846094 66.418957 
L 505.246094 66.418957 
" clip-path="url(#p8df8d9db7c)" style="fill: none; stroke: #2a2a2a; stroke-linecap: round"/>
     </g>
     <g id="line2d_28">
      <g>
       <use xlink:href="#m328c0e68a0" x="58.846094" y="66.418957" style="stroke: #000000; stroke-width: 0.8"/>
      </g>
     </g>
     <g id="text_15">
      <!-- 0.75 -->
      <g transform="translate(29.580469 70.217785) scale(0.1 -0.1)">
       <use xlink:href="#DejaVuSans-13"/>
       <use xlink:href="#DejaVuSans-11" transform="translate(63.625 0)"/>
       <use xlink:href="#DejaVuSans-1a" transform="translate(95.40625 0)"/>
       <use xlink:href="#DejaVuSans-18" transform="translate(159.03125 0)"/>
      </g>
     </g>
    </g>
    <g id="ytick_9">
     <g id="line2d_29">
      <path d="M 58.846094 34.918125 
L 505.246094 34.918125 
" clip-path="url(#p8df8d9db7c)" style="fill: none; stroke: #2a2a2a; stroke-linecap: round"/>
     </g>
     <g id="line2d_30">
      <g>
       <use xlink:href="#m328c0e68a0" x="58.846094" y="34.918125" style="stroke: #000000; stroke-width: 0.8"/>
      </g>
     </g>
     <g id="text_16">
      <!-- 1.00 -->
      <g transform="translate(29.580469 38.716953) scale(0.1 -0.1)">
       <use xlink:href="#DejaVuSans-14"/>
       <use xlink:href="#DejaVuSans-11" transform="translate(63.625 0)"/>
       <use xlink:href="#DejaVuSans-13" transform="translate(95.40625 0)"/>
       <use xlink:href="#DejaVuSans-13" transform="translate(159.03125 0)"/>
      </g>
     </g>
    </g>
    <g id="text_17">
     <!-- y-axis -->
     <g transform="translate(14.798438 175.611094) rotate(-90) scale(0.1 -0.1)">
      <defs>
       <path id="DejaVuSans-5c" d="M 2059 -325 
Q 1816 -950 1584 -1140 
Q 1353 -1331 966 -1331 
L 506 -1331 
L 506 -850 
L 844 -850 
Q 1081 -850 1212 -737 
Q 1344 -625 1503 -206 
L 1606 56 
L 191 3500 
L 800 3500 
L 1894 763 
L 2988 3500 
L 3597 3500 
L 2059 -325 
z
" transform="scale(0.015625)"/>
      </defs>
      <use xlink:href="#DejaVuSans-5c"/>
      <use xlink:href="#DejaVuSans-10" transform="translate(57.4375 0)"/>
      <use xlink:href="#DejaVuSans-44" transform="translate(93.515625 0)"/>
      <use xlink:href="#DejaVuSans-5b" transform="translate(154.796875 0)"/>
      <use xlink:href="#DejaVuSans-4c" transform="translate(213.984375 0)"/>
      <use xlink:href="#DejaVuSans-56" transform="translate(241.765625 0)"/>
     </g>
    </g>
   </g>
   <g id="line2d_31">
    <path d="M 79.137003 160.921454 
L 83.236176 148.215477 
L 87.33535 135.63903 
L 91.434524 123.320321 
L 95.533697 111.384932 
L 99.632871 99.954536 
L 103.732044 89.14566 
L 107.831218 79.068493 
L 111.930391 69.825764 
L 116.029565 61.511699 
L 120.128738 54.211054 
L 124.227912 47.998253 
L 128.327085 42.936633 
L 132.426259 39.077794 
L 136.525433 36.461075 
L 140.624606 35.11315 
L 144.72378 35.047761 
L 148.822953 36.265575 
L 152.922127 38.754177 
L 157.0213 42.488197 
L 161.120474 47.429569 
L 165.219647 53.52792 
L 169.318821 60.721079 
L 173.417995 68.935719 
L 177.517168 78.088094 
L 181.616342 88.084904 
L 185.715515 98.824236 
L 189.814689 110.19661 
L 193.913862 122.086092 
L 198.013036 134.371475 
L 202.112209 146.927519 
L 206.211383 159.626222 
L 210.310557 172.33813 
L 214.40973 184.933651 
L 218.508904 197.284384 
L 222.608077 209.264419 
L 226.707251 220.751628 
L 230.806424 231.628907 
L 234.905598 241.785367 
L 239.004771 251.117471 
L 243.103945 259.530084 
L 247.203119 266.937444 
L 251.302292 273.264038 
L 255.401466 278.44537 
L 259.500639 282.42862 
L 263.599813 285.173182 
L 267.698986 286.651075 
L 271.79816 286.847234 
L 275.897333 285.75966 
L 279.996507 283.399439 
L 284.095681 279.790632 
L 288.194854 274.970029 
L 292.294028 268.986773 
L 296.393201 261.90186 
L 300.492375 253.787514 
L 304.591548 244.726458 
L 308.690722 234.811063 
L 312.789895 224.14241 
L 316.889069 212.82926 
L 320.988243 200.986942 
L 325.087416 188.736181 
L 329.18659 176.201867 
L 333.285763 163.511779 
L 337.384937 150.795284 
L 341.48411 138.182019 
L 345.583284 125.800569 
L 349.682457 113.777153 
L 353.781631 102.234344 
L 357.880804 91.289813 
L 361.979978 81.055132 
L 366.079152 71.634638 
L 370.178325 63.124367 
L 374.277499 55.611076 
L 378.376672 49.171357 
L 382.475846 43.870859 
L 386.575019 39.763619 
L 390.674193 36.891506 
L 394.773366 35.2838 
L 398.87254 34.956891 
L 402.971714 35.914111 
L 407.070887 38.145702 
L 411.170061 41.628914 
L 415.269234 46.328238 
L 419.368408 52.195767 
L 423.467581 59.171686 
L 427.566755 67.18488 
L 431.665928 76.153659 
L 435.765102 85.986592 
L 439.864276 96.583439 
L 443.963449 107.836171 
L 448.062623 119.630074 
L 452.161796 131.844916 
L 456.26097 144.356175 
L 460.360143 157.036307 
L 464.459317 169.756046 
L 468.55849 182.385722 
L 472.657664 194.796582 
L 476.756838 206.862108 
L 480.856011 218.459297 
L 484.955185 229.469924 
" clip-path="url(#p8df8d9db7c)" style="fill: none; stroke: #000000; stroke-width: 2.5; stroke-linecap: round"/>
   </g>
   <g id="line2d_32">
    <path d="M 79.137003 34.918125 
L 83.236176 35.560387 
L 87.33535 37.480626 
L 91.434524 40.659267 
L 95.533697 45.063904 
L 99.632871 50.649636 
L 103.732044 57.359519 
L 107.831218 65.125151 
L 111.930391 73.867366 
L 116.029565 83.497042 
L 120.128738 93.916011 
L 124.227912 105.018058 
L 128.327085 116.690005 
L 132.426259 128.812864 
L 136.525433 141.263049 
L 140.624606 153.91364 
L 144.72378 166.635671 
L 148.822953 179.299449 
L 152.922127 191.775874 
L 157.0213 203.937759 
L 161.120474 215.661119 
L 165.219647 226.826444 
L 169.318821 237.319908 
L 173.417995 247.034538 
L 177.517168 255.8713 
L 181.616342 263.740109 
L 185.715515 270.560746 
L 189.814689 276.263679 
L 193.913862 280.790772 
L 198.013036 284.095873 
L 202.112209 286.145288 
L 206.211383 286.918125 
L 210.310557 286.406506 
L 214.40973 284.615646 
L 218.508904 281.563802 
L 222.608077 277.282085 
L 226.707251 271.814145 
L 230.806424 265.215724 
L 234.905598 257.554089 
L 239.004771 248.907346 
L 243.103945 239.363642 
L 247.203119 229.020269 
L 251.302292 217.982672 
L 255.401466 206.363371 
L 259.500639 194.28082 
L 263.599813 181.85819 
L 267.698986 169.222124 
L 271.79816 156.501437 
L 275.897333 143.82581 
L 279.996507 131.324462 
L 284.095681 119.124837 
L 288.194854 107.351302 
L 292.294028 96.12388 
L 296.393201 85.557029 
L 300.492375 75.758471 
L 304.591548 66.828096 
L 308.690722 58.856943 
L 312.789895 51.926273 
L 316.889069 46.10674 
L 320.988243 41.45767 
L 325.087416 38.026459 
L 329.18659 35.848084 
L 333.285763 34.944753 
L 337.384937 35.325675 
L 341.48411 36.986967 
L 345.583284 39.911693 
L 349.682457 44.070036 
L 353.781631 49.419606 
L 357.880804 55.905867 
L 361.979978 63.462695 
L 366.079152 72.013054 
L 370.178325 81.469778 
L 374.277499 91.736462 
L 378.376672 102.708443 
L 382.475846 114.273868 
L 386.575019 126.314837 
L 390.674193 138.708598 
L 394.773366 151.328805 
L 398.87254 164.046802 
L 402.971714 176.732939 
L 407.070887 189.257888 
L 411.170061 201.493965 
L 415.269234 213.316431 
L 419.368408 224.604763 
L 423.467581 235.243884 
L 427.566755 245.125335 
L 431.665928 254.14838 
L 435.765102 262.221036 
L 439.864276 269.261006 
L 443.963449 275.196523 
L 448.062623 279.967078 
L 452.161796 283.524038 
L 456.26097 285.831143 
L 460.360143 286.864871 
L 464.459317 286.614687 
L 468.55849 285.083139 
L 472.657664 282.285841 
L 476.756838 278.25131 
L 480.856011 273.020675 
L 484.955185 266.647259 
" clip-path="url(#p8df8d9db7c)" style="fill: none; stroke: #666666; stroke-width: 2.5; stroke-linecap: round"/>
   </g>
   <g id="line2d_33">
    <path d="M 79.137003 71.823646 
L 83.236176 81.262276 
L 87.33535 91.512981 
L 91.434524 102.471261 
L 95.533697 114.025405 
L 99.632871 126.057624 
L 103.732044 138.445258 
L 107.831218 151.062022 
L 111.930391 163.779297 
L 116.029565 176.467438 
L 120.128738 188.997098 
L 124.227912 201.240544 
L 128.327085 213.072963 
L 132.426259 224.37373 
L 136.525433 235.027641 
L 140.624606 244.926086 
L 144.72378 253.968157 
L 148.822953 262.061676 
L 152.922127 269.124134 
L 157.0213 275.083534 
L 161.120474 279.879124 
L 165.219647 283.462015 
L 169.318821 285.795683 
L 173.417995 286.856337 
L 177.517168 286.633164 
L 181.616342 285.12844 
L 185.715515 282.357504 
L 189.814689 278.348605 
L 193.913862 273.142609 
L 198.013036 266.79259 
L 202.112209 259.363282 
L 206.211383 250.930421 
L 210.310557 241.579976 
L 214.40973 231.407268 
L 218.508904 220.516002 
L 222.608077 209.017207 
L 226.707251 197.028106 
L 230.806424 184.67092 
L 234.905598 172.071624 
L 239.004771 159.358659 
L 243.103945 146.661626 
L 247.203119 134.109962 
L 251.302292 121.831625 
L 255.401466 109.951784 
L 259.500639 98.591546 
L 263.599813 87.866722 
L 267.698986 77.886646 
L 271.79816 68.753056 
L 275.897333 60.559066 
L 279.996507 53.388206 
L 284.095681 47.31358 
L 288.194854 42.397115 
L 292.294028 38.68893 
L 296.393201 36.226828 
L 300.492375 35.03591 
L 304.591548 35.128315 
L 308.690722 36.503102 
L 312.789895 39.146255 
L 316.889069 43.030829 
L 320.988243 48.117224 
L 325.087416 54.353587 
L 329.18659 61.676342 
L 333.285763 70.010838 
L 337.384937 79.27211 
L 341.48411 89.365746 
L 345.583284 100.188847 
L 349.682457 111.631079 
L 353.781631 123.575794 
L 357.880804 135.901226 
L 361.979978 148.481722 
L 366.079152 161.189034 
L 370.178325 173.893618 
L 374.277499 186.465959 
L 378.376672 198.77789 
L 382.475846 210.703899 
L 386.575019 222.122406 
L 390.674193 232.917009 
L 394.773366 242.977663 
L 398.87254 252.201805 
L 402.971714 260.495402 
L 407.070887 267.773906 
L 411.170061 273.963116 
L 415.269234 278.999938 
L 419.368408 282.833024 
L 423.467581 285.423299 
L 427.566755 286.744356 
L 431.665928 286.782728 
L 435.765102 285.538024 
L 439.864276 283.022933 
L 443.963449 279.263094 
L 448.062623 274.296837 
L 452.161796 268.17479 
L 456.26097 260.959362 
L 460.360143 252.724112 
L 464.459317 243.552991 
L 468.55849 233.539494 
L 472.657664 222.785702 
L 476.756838 211.401242 
L 480.856011 199.502174 
L 484.955185 187.209799 
" clip-path="url(#p8df8d9db7c)" style="fill: none; stroke: #252525; stroke-width: 2.5; stroke-linecap: round"/>
   </g>
   <g id="patch_3">
    <path d="M 58.846094 299.518125 
L 58.846094 22.318125 
" style="fill: none; stroke: #555555; stroke-width: 0.8; stroke-linejoin: miter; stroke-linecap: square"/>
   </g>
   <g id="patch_4">
    <path d="M 505.246094 299.518125 
L 505.246094 22.318125 
" style="fill: none; stroke: #555555; stroke-width: 0.8; stroke-linejoin: miter; stroke-linecap: square"/>
   </g>
   <g id="patch_5">
    <path d="M 58.846094 299.518125 
L 505.246094 299.518125 
" style="fill: none; stroke: #555555; stroke-width: 0.8; stroke-linejoin: miter; stroke-linecap: square"/>
   </g>
   <g id="patch_6">
    <path d="M 58.846094 22.318125 
L 505.246094 22.318125 
" style="fill: none; stroke: #555555; stroke-width: 0.8; stroke-linejoin: miter; stroke-linecap: square"/>
   </g>
   <g id="text_18">
    <!-- Title -->
    <g style="fill: #e0e0e0" transform="translate(269.188281 16.318125) scale(0.12 -0.12)">
     <defs>
      <path id="DejaVuSans-37" d="M -19 4666 
L 3928 4666 
L 3928 4134 
L 2272 4134 
L 2272 0 
L 1638 0 
L 1638 4134 
L -19 4134 
L -19 4666 
z
" transform="scale(0.015625)"/>
      <path id="DejaVuSans-57" d="M 1172 4494 
L 1172 3500 
L 2356 3500 
L 2356 3053 
L 1172 3053 
L 1172 1153 
Q 1172 725 1289 603 
Q 1406 481 1766 481 
L 2356 481 
L 2356 0 
L 1766 0 
Q 1100 0 847 248 
Q 594 497 594 1153 
L 594 3053 
L 172 3053 
L 172 3500 
L 594 3500 
L 594 4494 
L 1172 4494 
z
" transform="scale(0.015625)"/>
      <path id="DejaVuSans-4f" d="M 603 4863 
L 1178 4863 
L 1178 0 
L 603 0 
L 603 4863 
z
" transform="scale(0.015625)"/>
      <path id="DejaVuSans-48" d="M 3597 1894 
L 3597 1613 
L 953 1613 
Q 991 1019 1311 708 
Q 1631 397 2203 397 
Q 2534 397 2845 478 
Q 3156 559 3463 722 
L 3463 178 
Q 3153 47 2828 -22 
Q 2503 -91 2169 -91 
Q 1331 -91 842 396 
Q 353 884 353 1716 
Q 353 2575 817 3079 
Q 1281 3584 2069 3584 
Q 2775 3584 3186 3129 
Q 3597 2675 3597 1894 
z
M 3022 2063 
Q 3016 2534 2758 2815 
Q 2500 3097 2075 3097 
Q 1594 3097 1305 2825 
Q 1016 2553 972 2059 
L 3022 2063 
z
" transform="scale(0.015625)"/>
     </defs>
     <use xlink:href="#DejaVuSans-37"/>
     <use xlink:href="#DejaVuSans-4c" transform="translate(58 0)"/>
     <use xlink:href="#DejaVuSans-57" transform="translate(85.78125 0)"/>
     <use xlink:href="#DejaVuSans-4f" transform="translate(124.984375 0)"/>
     <use xlink:href="#DejaVuSans-48" transform="translate(152.765625 0)"/>
    </g>
   </g>
   <g id="legend_1">
    <g id="patch_7">
     <path d="M 65.846094 294.518125 
L 153.946094 294.518125 
Q 155.946094 294.518125 155.946094 292.518125 
L 155.946094 248.511094 
Q 155.946094 246.511094 153.946094 246.511094 
L 65.846094 246.511094 
Q 63.846094 246.511094 63.846094 248.511094 
L 63.846094 292.518125 
Q 63.846094 294.518125 65.846094 294.518125 
z
" style="fill: #121212; opacity: 0.8; stroke: #cccccc; stroke-linejoin: miter"/>
    </g>
    <g id="line2d_34">
     <path d="M 67.846094 254.611094 
L 77.846094 254.611094 
L 87.846094 254.611094 
" style="fill: none; stroke: #000000; stroke-width: 2.5; stroke-linecap: round"/>
    </g>
    <g id="text_19">
     <!-- $\sin(x)$ -->
     <g style="fill: #e0e0e0" transform="translate(95.846094 258.111094) scale(0.1 -0.1)">
      <defs>
       <path id="DejaVuSans-51" d="M 3513 2113 
L 3513 0 
L 2938 0 
L 2938 2094 
Q 2938 2591 2744 2837 
Q 2550 3084 2163 3084 
Q 1697 3084 1428 2787 
Q 1159 2491 1159 1978 
L 1159 0 
L 581 0 
L 581 3500 
L 1159 3500 
L 1159 2956 
Q 1366 3272 1645 3428 
Q 1925 3584 2291 3584 
Q 2894 3584 3203 3211 
Q 3513 2838 3513 2113 
z
" transform="scale(0.015625)"/>
       <path id="DejaVuSans-b" d="M 1984 4856 
Q 1566 4138 1362 3434 
Q 1159 2731 1159 2009 
Q 1159 1288 1364 580 
Q 1569 -128 1984 -844 
L 1484 -844 
Q 1016 -109 783 600 
Q 550 1309 550 2009 
Q 550 2706 781 3412 
Q 1013 4119 1484 4856 
L 1984 4856 
z
" transform="scale(0.015625)"/>
       <path id="DejaVuSans-Oblique-5b" d="M 3841 3500 
L 2234 1784 
L 3219 0 
L 2559 0 
L 1819 1388 
L 531 0 
L -166 0 
L 1556 1844 
L 641 3500 
L 1300 3500 
L 1972 2234 
L 3144 3500 
L 3841 3500 
z
" transform="scale(0.015625)"/>
       <path id="DejaVuSans-c" d="M 513 4856 
L 1013 4856 
Q 1481 4119 1714 3412 
Q 1947 2706 1947 2009 
Q 1947 1309 1714 600 
Q 1481 -109 1013 -844 
L 513 -844 
Q 928 -128 1133 580 
Q 1338 1288 1338 2009 
Q 1338 2731 1133 3434 
Q 928 4138 513 4856 
z
" transform="scale(0.015625)"/>
      </defs>
      <use xlink:href="#DejaVuSans-56" transform="translate(0 0.015625)"/>
      <use xlink:href="#DejaVuSans-4c" transform="translate(52.099609 0.015625)"/>
      <use xlink:href="#DejaVuSans-51" transform="translate(79.882812 0.015625)"/>
      <use xlink:href="#DejaVuSans-b" transform="translate(143.261719 0.015625)"/>
      <use xlink:href="#DejaVuSans-Oblique-5b" transform="translate(182.275391 0.015625)"/>
      <use xlink:href="#DejaVuSans-c" transform="translate(241.455078 0.015625)"/>
     </g>
    </g>
    <g id="line2d_35">
     <path d="M 67.846094 269.613438 
L 77.846094 269.613438 
L 87.846094 269.613438 
" style="fill: none; stroke: #666666; stroke-width: 2.5; stroke-linecap: round"/>
    </g>
    <g id="text_20">
     <!-- $\cos(x)$ -->
     <g style="fill: #e0e0e0" transform="translate(95.846094 273.113438) scale(0.1 -0.1)">
      <defs>
       <path id="DejaVuSans-46" d="M 3122 3366 
L 3122 2828 
Q 2878 2963 2633 3030 
Q 2388 3097 2138 3097 
Q 1578 3097 1268 2742 
Q 959 2388 959 1747 
Q 959 1106 1268 751 
Q 1578 397 2138 397 
Q 2388 397 2633 464 
Q 2878 531 3122 666 
L 3122 134 
Q 2881 22 2623 -34 
Q 2366 -91 2075 -91 
Q 1284 -91 818 406 
Q 353 903 353 1747 
Q 353 2603 823 3093 
Q 1294 3584 2113 3584 
Q 2378 3584 2631 3529 
Q 2884 3475 3122 3366 
z
" transform="scale(0.015625)"/>
       <path id="DejaVuSans-52" d="M 1959 3097 
Q 1497 3097 1228 2736 
Q 959 2375 959 1747 
Q 959 1119 1226 758 
Q 1494 397 1959 397 
Q 2419 397 2687 759 
Q 2956 1122 2956 1747 
Q 2956 2369 2687 2733 
Q 2419 3097 1959 3097 
z
M 1959 3584 
Q 2709 3584 3137 3096 
Q 3566 2609 3566 1747 
Q 3566 888 3137 398 
Q 2709 -91 1959 -91 
Q 1206 -91 779 398 
Q 353 888 353 1747 
Q 353 2609 779 3096 
Q 1206 3584 1959 3584 
z
" transform="scale(0.015625)"/>
      </defs>
      <use xlink:href="#DejaVuSans-46" transform="translate(0 0.125)"/>
      <use xlink:href="#DejaVuSans-52" transform="translate(54.980469 0.125)"/>
      <use xlink:href="#DejaVuSans-56" transform="translate(116.162109 0.125)"/>
      <use xlink:href="#DejaVuSans-b" transform="translate(168.261719 0.125)"/>
      <use xlink:href="#DejaVuSans-Oblique-5b" transform="translate(207.275391 0.125)"/>
      <use xlink:href="#DejaVuSans-c" transform="translate(266.455078 0.125)"/>
     </g>
    </g>
    <g id="line2d_36">
     <path d="M 67.846094 284.615781 
L 77.846094 284.615781 
L 87.846094 284.615781 
" style="fill: none; stroke: #252525; stroke-width: 2.5; stroke-linecap: round"/>
    </g>
    <g id="text_21">
     <!-- $\sin(x + \pi/4)$ -->
     <g style="fill: #e0e0e0" transform="translate(95.846094 288.115781) scale(0.1 -0.1)">
      <defs>
       <path id="DejaVuSans-e" d="M 2944 4013 
L 2944 2272 
L 4684 2272 
L 4684 1741 
L 2944 1741 
L 2944 0 
L 2419 0 
L 2419 1741 
L 678 1741 
L 678 2272 
L 2419 2272 
L 2419 4013 
L 2944 4013 
z
" transform="scale(0.015625)"/>
       <path id="DejaVuSans-Oblique-354" d="M 584 3500 
L 3938 3500 
L 3825 2925 
L 3384 2925 
L 2966 775 
Q 2922 550 2981 450 
Q 3038 353 3209 353 
Q 3256 353 3325 363 
Q 3397 369 3419 372 
L 3338 -44 
Q 3222 -84 3103 -103 
Q 2981 -122 2866 -122 
Q 2491 -122 2388 81 
Q 2284 288 2391 838 
L 2797 2925 
L 1506 2925 
L 938 0 
L 350 0 
L 919 2925 
L 472 2925 
L 584 3500 
z
" transform="scale(0.015625)"/>
       <path id="DejaVuSans-12" d="M 1625 4666 
L 2156 4666 
L 531 -594 
L 0 -594 
L 1625 4666 
z
" transform="scale(0.015625)"/>
      </defs>
      <use xlink:href="#DejaVuSans-56" transform="translate(0 0.015625)"/>
      <use xlink:href="#DejaVuSans-4c" transform="translate(52.099609 0.015625)"/>
      <use xlink:href="#DejaVuSans-51" transform="translate(79.882812 0.015625)"/>
      <use xlink:href="#DejaVuSans-b" transform="translate(143.261719 0.015625)"/>
      <use xlink:href="#DejaVuSans-Oblique-5b" transform="translate(182.275391 0.015625)"/>
      <use xlink:href="#DejaVuSans-e" transform="translate(260.9375 0.015625)"/>
      <use xlink:href="#DejaVuSans-Oblique-354" transform="translate(364.208984 0.015625)"/>
      <use xlink:href="#DejaVuSans-12" transform="translate(424.414062 0.015625)"/>
      <use xlink:href="#DejaVuSans-17" transform="translate(458.105469 0.015625)"/>
      <use xlink:href="#DejaVuSans-c" transform="translate(521.728516 0.015625)"/>
     </g>
    </g>
   </g>
  </g>
 </g>
 <defs>
  <clipPath id="p8df8d9db7c">
   <rect x="58.846094" y="22.318125" width="446.4" height="277.2"/>
  </clipPath>
 </defs>
</svg>
